<?xml version="1.0" encoding="utf-8"?>
<!-- Generator: Adobe Illustrator 16.0.0, SVG Export Plug-In . SVG Version: 6.00 Build 0)  -->
<!DOCTYPE svg PUBLIC "-//W3C//DTD SVG 1.1//EN" "http://www.w3.org/Graphics/SVG/1.1/DTD/svg11.dtd">
<svg version="1.1" id="Layer_1" xmlns="http://www.w3.org/2000/svg" xmlns:xlink="http://www.w3.org/1999/xlink" x="0px" y="0px"
	 width="114px" height="35px" viewBox="0 0 114 35" enable-background="new 0 0 114 35" xml:space="preserve">
<g>
	<path fill="#FFFFFF" d="M26.44,7.629c0,3.461-2.228,6.11-2.86,6.11c-0.06,0-0.091-0.032-0.091-0.062
		c0-0.181,0.393-0.632,0.393-0.691c0-0.152-0.241-0.271-0.241-0.483c0-0.541,0.632-1.566,0.632-4.154
		c0-2.466-1.385-4.213-2.167-4.213c-2.048,0-2.167,3.58-2.167,7.284c0,4.907-0.061,9.751-1.354,13.394
		c3.522,2.229,6.471,4.996,10.655,4.996c1.354,0,2.528-0.119,3.642-0.57c0.18-0.061,0.331-0.092,0.391-0.092
		c0.06,0,0.091,0.031,0.091,0.062c0,0.328-0.662,0.42-0.783,0.811c-0.571,2.047-4.605,2.65-6.35,2.65
		c-3.642,0-6.652-2.229-9.602-4.457c-1.474,1.656-3.611,2.65-6.742,2.65C4.738,30.865,2,28.578,2,26.289
		c0-2.166,2.559-4.334,7.945-4.334c2.378,0,4.395,0.602,6.171,1.445c2.437-7.826-0.151-20.8,6.501-20.8
		C25.326,2.601,26.44,5.042,26.44,7.629z M3.174,25.686c0,1.629,2.167,3.555,5.748,3.555c2.619,0,4.395-1.025,5.599-2.619
		c-2.378-1.684-4.786-3.129-7.585-3.129C4.317,23.492,3.174,24.514,3.174,25.686z"/>
	<path fill="#FFFFFF" d="M27.986,8.982c1.114-0.662,1.805-1.897,1.805-2.919c0-1.443-1.204-1.355-1.204-2.257
		C28.588,2.993,29.491,2,30.605,2c0.812,0,1.204,0.694,1.204,1.655c0,1.867-1.385,4.725-3.582,5.661L27.986,8.982z"/>
	<path fill="#FFFFFF" d="M37.982,16.869c0.541,0.152,1.294,0.393,1.294,0.753c0,0.873-0.422,3.613-0.422,5.75
		c0,1.533,0.211,2.736,0.964,2.736c0.661,0,1.475-0.602,1.775-1.322c0.331-0.09,0.392-0.48,0.481-0.48c0.12,0,0.12,0.178,0.12,0.27
		c0,1.596-1.414,3.039-2.799,3.039c-1.174,0-2.317-1.021-2.618-3.73c-0.813,2.105-1.956,3.73-3.13,3.73
		c-2.077,0-2.98-2.195-2.98-4.783c0-3.765,1.867-8.368,4.726-8.368C36.988,14.462,37.771,15.484,37.982,16.869z M36.958,17.77
		c-0.512-0.661-0.994-0.96-1.444-0.96c-1.867,0-3.101,4.842-3.101,7.223c0,1.232,0.3,2.104,0.903,2.104
		C35.785,26.137,36.688,20.148,36.958,17.77z"/>
	<path fill="#FFFFFF" d="M48.039,15.124c1.296,0,1.656,0.691,1.656,1.926c0,3.37-0.03,5.057-0.24,6.139
		c0.963-2.105,2.377-7.284,4.124-8.938c0.09-0.062,0.151-0.093,0.24-0.093c0.332,0,1.385,0.693,1.385,1.054
		c0,0.061,0,0.093-0.029,0.152c-0.752,1.686-1.054,4.362-1.054,6.17c0,1.746,0.542,3.613,1.445,3.613
		c0.391,0,0.843-0.244,1.354-0.785c0,0,0.061-0.029,0.121-0.029s0.089,0.029,0.089,0.088c0,1.234-1.264,2.441-2.468,2.441
		c-2.377,0-2.708-3.344-2.708-5.811c0-0.992,0.06-1.836,0.06-2.257c-0.874,1.444-1.897,6.108-2.559,8.097
		c0,0.211-0.211,0.299-0.452,0.299c-0.752,0-1.625,0-1.625-0.422V26.74c0.12-1.084,0.302-4.273,0.302-6.623
		c0-1.532-0.091-2.707-0.271-2.707c-0.752,0-1.986,3.761-2.619,9c0,0.664-0.421,0.934-0.934,0.934c-0.692,0-1.474-0.512-1.505-1.266
		c0.09-0.66,0.963-5.416,0.963-8.034c0-1.023-0.15-1.716-0.511-1.716c-0.481,0-1.264,0.843-1.956,2.137c0,0-0.091,0.029-0.211,0.029
		c-0.24,0-0.572-0.09-0.572-0.483c0.843-1.593,2.017-2.977,3.613-2.977c1.203,0,1.596,1.322,1.596,3.04
		c0,1.354-0.242,2.917-0.482,4.243C45.783,18.222,46.957,15.124,48.039,15.124z"/>
	<path fill="#FFFFFF" d="M57.921,2.512c0-0.091,0.089-0.122,0.18-0.122c0.061,0,0.151,0.031,0.211,0.063
		c0.783,0.779,1.926,0.96,1.926,2.135c-0.211,3.071-0.542,8.308-0.812,13.033c0.933-2.138,2.288-3.341,3.551-3.341
		c2.017,0,2.949,2.529,2.949,5.358c0,3.643-1.534,7.826-4.243,7.826c-1.023,0-2.077-0.633-2.709-1.75l-0.12,1.838
		c0,0.213-0.18,0.271-0.421,0.271c-0.3,0-1.716-0.812-1.716-0.932c0-0.061,0-0.182,0.031-0.271
		c0.963-5.537,1.174-15.411,1.174-23.898V2.512z M59.245,20.99c-0.03,0.785-0.06,1.477-0.12,2.17
		c0.12,2.016,1.145,3.158,2.228,3.158c1.534,0,2.377-2.855,2.377-5.416c0-2.137-0.571-4.064-1.745-4.064
		C60.9,16.838,59.666,18.494,59.245,20.99z"/>
	<path fill="#FFFFFF" d="M68.31,15.604c0.512,0,1.023-0.03,1.835-0.211c0.361,0,0.361,0.24,0.361,0.24
		c-0.782,4.366-1.203,6.113-1.203,9.123c0,1.021,0.271,1.381,0.661,1.381c0.663,0,1.626-1.082,1.957-1.863
		c0.061-0.092,0.181-0.18,0.271-0.18c0.089,0,0.15,0.059,0.15,0.18v0.061c-0.332,1.717-1.595,3.279-3.04,3.279
		c-1.686,0-2.197-2.195-2.197-4.727c0-2.615,0.542-5.567,0.842-6.89C67.949,15.997,68.07,15.604,68.31,15.604z M72.042,8.862
		c0,1.145-0.872,2.59-1.926,2.59c-0.963,0-1.385-0.726-1.385-1.536c0-1.116,0.784-2.439,1.986-2.439
		C71.682,7.478,72.042,8.109,72.042,8.862z"/>
	<path fill="#FFFFFF" d="M78.487,23.883c-0.813,2.105-1.957,3.73-3.132,3.73c-2.075,0-2.979-2.195-2.979-4.783
		c0-3.765,1.865-8.368,4.726-8.368c1.595,0,2.377,1.021,2.587,2.406c0.542,0.152,1.296,0.393,1.296,0.753
		c0,0.873-0.422,3.613-0.422,5.75c0,1.533,0.211,2.736,0.964,2.736c2.196,0,2.949-10.442,3.973-11.013
		c0.391-0.243,0.962-0.453,1.413-0.453c0.361,0,0.634,0.149,0.664,0.541c0.06,0.995,0.06,2.228,0.06,3.402
		c0,1.414,0,2.769-0.031,3.55c0.963-2.104,2.077-5.628,3.824-7.283c0.089-0.061,0.15-0.091,0.239-0.091
		c0.331,0,1.385,0.694,1.385,1.054c0,0.059,0,0.091-0.031,0.152c-0.752,1.686-1.052,4.363-1.052,6.167
		c0,1.596,0.391,3.162,1.023,3.162c0.36,0,0.812-0.512,1.293-1.834c0,0,0.061-0.031,0.121-0.031s0.091,0.031,0.091,0.088
		c0,1.236-0.813,3.072-2.018,3.072c-2.618,0-2.799-5.146-2.799-6.653c-1.444,1.567-2.166,5.688-2.828,7.675
		c0,0.211-0.212,0.301-0.452,0.301c-0.331,0-0.783-0.18-0.843-0.361c-0.12-0.301-0.572-0.121-0.572-0.449
		c0-0.061,0-0.182,0.03-0.271c0.12-0.602,0.211-2.258,0.361-4.184c0-0.182,0.3-3.672,0.3-4.966c0-0.301-0.028-0.482-0.06-0.482
		c-0.843,0-1.443,10.414-4.515,10.414C79.931,27.613,78.787,26.592,78.487,23.883z M78.667,17.77
		c-0.511-0.661-0.993-0.96-1.445-0.96c-1.866,0-3.1,4.842-3.1,7.223c0,1.232,0.302,2.104,0.902,2.104
		C77.493,26.137,78.396,20.148,78.667,17.77z"/>
	<path fill="#FFFFFF" d="M109.83,24.785c0.331-0.09,0.391-0.48,0.481-0.48c0.121,0,0.121,0.178,0.121,0.27
		c0,1.596-0.933,3.068-2.8,3.068c-1.535,0-2.708-0.662-3.521-1.684c-1.475,1.293-3.22,2.166-5.116,2.166
		c-3.643,0-5.087-2.889-5.087-6.051c0-3.79,2.077-7.946,5.087-7.946c1.204,0,2.107,0.934,2.258,2.98
		c0.029,0.152,0.06,0.334,0.06,0.482c0,0.963-0.783,1.685-1.806,1.685c-0.633,0-0.873-0.24-0.873-0.391c0-0.061,0.03-0.09,0.09-0.09
		c0.241-0.03,0.783-1.174,0.783-1.868c0-0.24-0.061-0.422-0.211-0.481c-1.715,0.152-3.279,3.402-3.279,6.231
		c0,2.26,0.962,4.273,3.641,4.273c1.564,0,2.89-0.662,3.973-1.686c-0.691-1.203-0.993-2.738-0.993-4.275
		c0-3.399,1.595-6.8,4.425-6.8c1.204,0,1.775,0.963,1.775,2.409c0,2.167-1.233,5.356-3.25,7.823
		c0.452,1.115,1.144,1.867,2.107,1.867C108.355,26.289,109.528,25.506,109.83,24.785z M104.895,20.391
		c0,0.994,0.121,2.018,0.331,2.918c1.354-2.195,2.047-4.876,2.047-6.44c0-0.784-0.151-1.294-0.514-1.294
		C105.557,15.575,104.895,17.893,104.895,20.391z"/>
</g>
</svg>
