<?xml version="1.0" encoding="utf-8"?>
<!-- Generator: Adobe Illustrator 16.0.0, SVG Export Plug-In . SVG Version: 6.00 Build 0)  -->
<!DOCTYPE svg PUBLIC "-//W3C//DTD SVG 1.1//EN" "http://www.w3.org/Graphics/SVG/1.1/DTD/svg11.dtd">
<svg version="1.1" id="Layer_1" xmlns="http://www.w3.org/2000/svg" xmlns:xlink="http://www.w3.org/1999/xlink" x="0px" y="0px"
	 width="114px" height="35px" viewBox="0 0 114 35" enable-background="new 0 0 114 35" xml:space="preserve">
<circle cx="17.999" cy="17.333" r="14.999"/>
<circle fill="#FFFFFF" cx="17.999" cy="17.333" r="11.134"/>
<g>
	<rect x="14.5" y="13.833" fill="#E53824" width="7" height="7"/>
	<path fill="#E53824" d="M21.5,13.833v7h-7v-7H21.5 M21.5,10.833h-7c-1.657,0-3,1.343-3,3v7c0,1.657,1.343,3,3,3h7
		c1.657,0,3-1.343,3-3v-7C24.5,12.176,23.156,10.833,21.5,10.833L21.5,10.833z"/>
</g>
<g>
	<path fill="#FFFFFF" d="M41.754,22.346c-1.289,0-1.765,0.014-2.395,0.084v-2.55c0.672,0.099,1.05,0.112,2.437,0.112h5.603v-5.477
		h-5.435c-1.289,0-1.821,0.014-2.41,0.07v-2.549c0.672,0.098,1.121,0.126,2.452,0.126h6.429c0.756,0,1.149-0.014,1.555-0.042
		c-0.028,0.49-0.042,0.729-0.042,1.429v7.312c0,1.177,0.014,1.499,0.084,2.312h-2.634v-0.826H41.754z"/>
	<path fill="#FFFFFF" d="M56.469,13.548c0.042-0.546,0.07-1.358,0.07-1.793c0-0.294,0-0.406-0.042-0.7l2.634,0.07
		c-0.07,0.322-0.07,0.364-0.154,1.695c-0.014,0.378-0.014,0.378-0.042,0.714h3.054c0.462,0,0.63-0.028,0.938-0.154l1.093,0.953
		c-0.154,0.28-0.183,0.392-0.196,1.037c-0.099,2.998-0.309,5.337-0.589,6.261c-0.406,1.303-1.078,1.751-2.633,1.751
		c-0.547,0-0.757-0.014-1.835-0.111c-0.057-1.121-0.154-1.583-0.477-2.466c0.7,0.183,1.387,0.28,1.821,0.28
		c0.672,0,0.84-0.225,1.022-1.442c0.14-0.939,0.266-2.704,0.266-3.909h-2.675c-0.112,0.924-0.112,0.924-0.21,1.4
		c-0.617,2.83-1.947,4.651-4.791,6.528c-0.63-0.994-1.05-1.471-1.821-2.129c1.863-0.98,2.941-1.976,3.642-3.39
		c0.35-0.715,0.504-1.219,0.7-2.396h-1.751c-0.938,0-1.232,0.014-1.891,0.084l-0.014-2.395c0.7,0.098,0.952,0.112,1.947,0.112
		H56.469z"/>
	<path fill="#FFFFFF" d="M68.537,22.346c-1.289,0-1.765,0.014-2.396,0.084v-2.55c0.673,0.099,1.051,0.112,2.438,0.112h5.603v-5.477
		h-5.435c-1.289,0-1.821,0.014-2.409,0.07v-2.549c0.672,0.098,1.12,0.126,2.451,0.126h6.43c0.756,0,1.148-0.014,1.555-0.042
		c-0.028,0.49-0.042,0.729-0.042,1.429v7.312c0,1.177,0.014,1.499,0.084,2.312h-2.634v-0.826H68.537z"/>
	<path fill="#FFFFFF" d="M79.008,15.972c0.658,0.098,1.414,0.126,2.871,0.126h6.695c1.401,0,1.934-0.028,2.872-0.126v2.704
		c-0.673-0.07-1.289-0.084-2.886-0.084h-6.668c-1.568,0-2.031,0.014-2.885,0.084V15.972z"/>
	<path fill="#FFFFFF" d="M93.134,14.851c0.63,0.084,1.078,0.112,2.255,0.112h7.032c0.672,0,0.771-0.014,1.12-0.154l1.093,1.177
		c-0.168,0.252-0.196,0.308-0.393,0.882c-0.728,2.088-1.736,3.656-3.109,4.805c-1.064,0.896-2.073,1.443-3.992,2.186
		c-0.364-0.826-0.756-1.4-1.568-2.297c1.681-0.435,2.689-0.883,3.697-1.64c1.022-0.756,1.64-1.555,2.157-2.801H95.36
		c-1.106,0-1.345,0.014-2.227,0.084V14.851z M94.296,11.349c0.547,0.084,1.064,0.112,2.06,0.112h4.469
		c1.106,0,1.708-0.028,2.198-0.112v2.354c-0.532-0.042-1.19-0.07-2.156-0.07h-4.539c-1.106,0-1.415,0.014-2.031,0.07V11.349z"/>
</g>
</svg>
