<?xml version="1.0" encoding="utf-8"?>
<!-- Generator: Adobe Illustrator 16.0.0, SVG Export Plug-In . SVG Version: 6.00 Build 0)  -->
<!DOCTYPE svg PUBLIC "-//W3C//DTD SVG 1.1//EN" "http://www.w3.org/Graphics/SVG/1.1/DTD/svg11.dtd">
<svg version="1.1" id="Layer_1" xmlns="http://www.w3.org/2000/svg" xmlns:xlink="http://www.w3.org/1999/xlink" x="0px" y="0px"
	 width="50px" height="50px" viewBox="0 0 50 50" enable-background="new 0 0 50 50" xml:space="preserve">
<g>
	<g>
		<path fill="#6C859E" d="M32.416,6.322c-0.287-0.236-0.682-0.286-1.018-0.128c-0.335,0.158-0.549,0.495-0.549,0.865v17.569
			c0,0.01,0,0.021,0,0.031v18.287c0,0.529,0.428,0.957,0.957,0.957c0.527,0,0.955-0.428,0.955-0.957V25.41
			c1.998-0.588,4.779-2.424,4.781-6.444C37.551,10.661,32.625,6.496,32.416,6.322z M32.762,23.371V9.601
			c1.279,1.796,2.873,4.927,2.869,9.363C35.629,21.694,33.936,22.878,32.762,23.371z"/>
		<path fill="#6C859E" d="M22.259,6.103c-0.527,0-0.956,0.428-0.956,0.956v4.731h-1.962V7.059c0-0.528-0.428-0.956-0.956-0.956
			s-0.957,0.428-0.957,0.956v4.731h-1.962V7.059c0-0.528-0.428-0.956-0.956-0.956s-0.957,0.428-0.957,0.956v5.687V15.7
			c0,2.337,1.668,4.291,3.875,4.736v22.51c0,0.529,0.427,0.957,0.957,0.957c0.527,0,0.956-0.428,0.956-0.957v-22.51
			c2.207-0.445,3.875-2.399,3.875-4.736v-2.953V7.059C23.216,6.531,22.788,6.103,22.259,6.103z M21.303,15.7
			c0,1.61-1.309,2.919-2.918,2.919s-2.919-1.309-2.919-2.919v-1.997h5.837V15.7L21.303,15.7z"/>
	</g>
</g>
</svg>
