<?xml version="1.0" encoding="utf-8"?>
<!-- Generator: Adobe Illustrator 16.0.0, SVG Export Plug-In . SVG Version: 6.00 Build 0)  -->
<!DOCTYPE svg PUBLIC "-//W3C//DTD SVG 1.1//EN" "http://www.w3.org/Graphics/SVG/1.1/DTD/svg11.dtd">
<svg version="1.1" id="Layer_1" xmlns="http://www.w3.org/2000/svg" xmlns:xlink="http://www.w3.org/1999/xlink" x="0px" y="0px"
	 width="114px" height="35px" viewBox="0 0 114 35" enable-background="new 0 0 114 35" xml:space="preserve">
<g>
	<path fill="#FFFFFF" d="M4.654,21.23v0.025H1.731V21.23l-0.737,4.778h-1.348L2.393,8.212h1.551l2.771,17.796H5.392L4.654,21.23z
		 M4.502,20.034l-0.687-4.321L3.18,10.449l-0.635,5.264l-0.662,4.321H4.502z"/>
	<path fill="#FFFFFF" d="M16.881,11.721l-0.076,5.568l-0.33,8.72h-1.297l0.687-17.822h1.729l1.551,10.221l0.686,5.136l0.763-5.136
		l1.576-10.221h1.652l0.687,17.822h-1.347l-0.356-8.72l0.025-5.594h-0.05l-0.865,5.467l-1.423,8.567h-1.424l-1.397-8.567
		l-0.738-5.441H16.881z"/>
	<path fill="#FFFFFF" d="M40.116,23.238c0,1.982-1.373,2.771-2.645,2.771h-4.068V8.212h3.178c2.264,0,3.508,1.398,3.508,3.56
		l-0.025,5.084c0,1.067-0.381,2.111-1.475,2.797c1.196,0.381,1.525,1.372,1.525,2.34V23.238z M34.751,9.433v9.864h1.881
		c0.916,0,2.162-0.94,2.162-2.466v-5.059c0-1.349-0.534-2.315-2.212-2.34H34.751z M38.794,21.993c0-1.017-0.712-1.5-1.679-1.524
		h-2.364v4.346h2.72c1.169,0,1.323-1.093,1.323-1.576V21.993z"/>
	<path fill="#FFFFFF" d="M49.315,26.009V8.212h1.348v17.796H49.315z"/>
	<path fill="#FFFFFF" d="M64.263,21.23v0.025H61.34V21.23l-0.738,4.778h-1.347L62,8.212h1.551l2.771,17.796h-1.322L64.263,21.23z
		 M64.111,20.034l-0.687-4.321l-0.636-5.264l-0.635,5.264l-0.662,4.321H64.111z"/>
	<path fill="#FFFFFF" d="M82.286,8.212v17.796h-1.245l-3.737-10.856l-1.094-3.711l0.203,3.864v10.703h-1.347V8.212h1.271
		l3.813,11.186l1.018,3.535l-0.203-3.688V8.212H82.286z"/>
	<path fill="#FFFFFF" d="M91.486,22.398V11.822c0-2.289,1.372-3.789,3.508-3.789c2.085,0,3.434,1.399,3.434,3.763v1.627h-1.271
		v-1.602c0-1.754-0.736-2.567-2.137-2.567c-1.27,0-2.185,0.966-2.185,2.567v10.603c0,1.271,0.736,2.542,2.185,2.542
		c1.45,0,2.111-1.193,2.111-2.518v-1.524h1.297v1.524c0,1.831-1.068,3.738-3.408,3.738C92.81,26.188,91.486,24.485,91.486,22.398z"
		/>
	<path fill="#FFFFFF" d="M108.927,9.382v10.704h3.837v1.17h-3.837v3.559h4.83v1.194h-6.18V8.212h6.18v1.169H108.927z"/>
</g>
<rect x="3.7" y="31.729" fill="#FFFFFF" width="104.856" height="1.271"/>
<rect x="3.7" y="1.222" fill="#FFFFFF" width="104.856" height="1.271"/>
</svg>
