<?xml version="1.0" encoding="utf-8"?>
<!-- Generator: Adobe Illustrator 16.0.0, SVG Export Plug-In . SVG Version: 6.00 Build 0)  -->
<!DOCTYPE svg PUBLIC "-//W3C//DTD SVG 1.1//EN" "http://www.w3.org/Graphics/SVG/1.1/DTD/svg11.dtd">
<svg version="1.1" id="Layer_1" xmlns="http://www.w3.org/2000/svg" xmlns:xlink="http://www.w3.org/1999/xlink" x="0px" y="0px"
	 width="150px" height="35px" viewBox="0 0 150 35" enable-background="new 0 0 150 35" xml:space="preserve">
<g>
	<g>
		<g>
			<path fill="#6C859E" d="M12.808,5.573c-0.182-0.151-0.432-0.182-0.645-0.082c-0.211,0.101-0.347,0.315-0.347,0.551v11.154
				c0,0.008,0,0.016,0,0.021V28.83c0,0.335,0.271,0.605,0.606,0.605c0.337,0,0.605-0.271,0.605-0.605V17.694
				c1.271-0.372,3.038-1.54,3.038-4.092C16.07,8.329,12.941,5.684,12.808,5.573z M13.027,16.399V7.653
				c0.816,1.143,1.826,3.13,1.823,5.946C14.851,15.335,13.774,16.087,13.027,16.399z"/>
			<path fill="#6C859E" d="M6.361,5.436c-0.335,0-0.608,0.271-0.608,0.606v3.003H4.508V6.042c0-0.335-0.273-0.606-0.608-0.606
				S3.292,5.707,3.292,6.042v3.003H2.046V6.042c0-0.335-0.271-0.606-0.605-0.606c-0.335,0-0.609,0.271-0.609,0.606v3.61v1.876
				c0,1.484,1.058,2.723,2.459,3.007V28.83c0,0.335,0.273,0.605,0.608,0.605s0.608-0.271,0.608-0.605V14.535
				c1.401-0.284,2.459-1.522,2.459-3.007V9.652v-3.61C6.967,5.707,6.696,5.436,6.361,5.436z M5.753,11.528
				c0,1.021-0.831,1.854-1.853,1.854c-1.023,0-1.854-0.832-1.854-1.854V10.26h3.707V11.528L5.753,11.528z"/>
		</g>
	</g>
	<g>
		<path fill="#020202" d="M28.263,28.994h-3.824V5.314h3.824V28.994z"/>
		<path fill="#020202" d="M35.817,7.908l-4.457,8.409l-2.435-0.316l3.383-8.506L35.817,7.908z"/>
		<path fill="#020202" d="M46.596,15.306v13.688h-3.825v-1.771c-1.232,1.549-2.592,2.215-4.488,2.215
			c-3.856,0-6.733-3.131-6.733-7.306c0-4.108,2.908-7.269,6.669-7.269c1.865,0,3.225,0.663,4.552,2.213v-1.771L46.596,15.306
			L46.596,15.306z M35.5,22.132c0,2.151,1.738,3.858,3.856,3.858c2.087,0,3.825-1.738,3.825-3.793c0-2.182-1.676-3.891-3.825-3.891
			C37.207,18.309,35.5,20.018,35.5,22.132z"/>
		<path fill="#020202" d="M52.188,15.306v1.58c1.266-1.454,2.498-2.021,4.173-2.021c1.896,0,3.224,0.758,4.268,2.496
			c1.076-1.675,2.561-2.496,4.49-2.496c1.643,0,3.098,0.758,3.823,1.958c0.507,0.823,0.729,1.803,0.729,3.321v8.853h-3.824v-7.493
			c0-1.107-0.064-1.611-0.317-2.182c-0.347-0.76-1.043-1.199-1.928-1.199c-0.98,0-1.834,0.504-2.245,1.357
			c-0.285,0.601-0.412,1.297-0.412,2.496v7.021h-3.824v-7.271c0-1.17-0.063-1.771-0.286-2.275c-0.315-0.792-1.169-1.327-2.054-1.327
			c-0.854,0-1.771,0.504-2.15,1.229c-0.315,0.569-0.443,1.297-0.443,2.623v7.021h-3.824v-13.69H52.188z"/>
		<path fill="#020202" d="M75.265,17.076c1.357-1.55,2.719-2.213,4.553-2.213c3.793,0,6.67,3.161,6.67,7.237
			c0,4.207-2.877,7.336-6.733,7.336c-1.897,0-3.226-0.664-4.489-2.213v1.771H71.44V5.314h3.826L75.265,17.076L75.265,17.076z
			 M74.854,22.132c0,2.151,1.738,3.858,3.857,3.858c2.086,0,3.825-1.738,3.825-3.793c0-2.182-1.707-3.891-3.856-3.891
			C76.561,18.309,74.854,20.018,74.854,22.132z"/>
		<path fill="#020202" d="M91.7,9.521c0,1.264-1.042,2.306-2.308,2.306c-1.295,0-2.306-1.042-2.306-2.338
			c0-1.235,1.042-2.277,2.306-2.277C90.689,7.212,91.7,8.225,91.7,9.521z M91.291,28.994h-3.826V15.306h3.826V28.994z"/>
		<path fill="#020202" d="M107.316,15.306v13.688h-3.824v-1.771c-1.233,1.549-2.596,2.215-4.49,2.215
			c-3.857,0-6.732-3.131-6.732-7.306c0-4.108,2.907-7.269,6.668-7.269c1.867,0,3.229,0.663,4.556,2.213v-1.771L107.316,15.306
			L107.316,15.306z M96.221,22.132c0,2.151,1.738,3.858,3.855,3.858c2.089,0,3.826-1.738,3.826-3.793
			c0-2.182-1.676-3.891-3.826-3.891C97.928,18.309,96.221,20.018,96.221,22.132z"/>
		<path fill="#020202" d="M112.908,15.306v1.706c1.203-1.548,2.434-2.148,4.3-2.148c1.612,0,3.065,0.601,3.983,1.642
			c0.791,0.918,1.074,1.93,1.074,3.795v8.694h-3.826v-7.589c0-1.137-0.094-1.737-0.377-2.215c-0.381-0.66-1.233-1.07-2.248-1.07
			c-1.957,0-2.906,1.199-2.906,3.792v7.082h-3.825V15.306H112.908z"/>
		<path fill="#020202" d="M134.311,19.479c-1.107-0.854-1.961-1.17-3.1-1.17c-2.275,0-3.952,1.645-3.952,3.856
			s1.677,3.825,3.952,3.825c1.171,0,2.057-0.317,3.1-1.139v3.729c-1.233,0.631-2.246,0.854-3.511,0.854
			c-4.233,0-7.491-3.131-7.491-7.207c0-4.174,3.258-7.367,7.524-7.367c1.358,0,2.369,0.251,3.478,0.821V19.479L134.311,19.479z"/>
		<path fill="#020202" d="M139.145,22.766c0.094,2.37,1.267,3.668,3.352,3.668c1.453,0,2.369-0.539,3.257-1.832l3.541,0.566
			c-1.171,2.812-3.479,4.27-6.704,4.27c-4.458,0-7.365-2.877-7.365-7.271c0-4.426,2.814-7.302,7.178-7.302
			c4.361,0,7.019,2.812,7.019,7.396v0.506H139.145z M145.752,20.333c-0.412-1.772-1.549-2.72-3.257-2.72s-2.876,1.011-3.226,2.72
			H145.752z"/>
	</g>
</g>
</svg>
