<?xml version="1.0" encoding="utf-8"?>
<!-- Generator: Adobe Illustrator 16.0.0, SVG Export Plug-In . SVG Version: 6.00 Build 0)  -->
<!DOCTYPE svg PUBLIC "-//W3C//DTD SVG 1.1//EN" "http://www.w3.org/Graphics/SVG/1.1/DTD/svg11.dtd">
<svg version="1.1" id="Layer_1" xmlns="http://www.w3.org/2000/svg" xmlns:xlink="http://www.w3.org/1999/xlink" x="0px" y="0px"
	 width="83.25px" height="32.75px" viewBox="14.5 -4 83.25 32.75" enable-background="new 14.5 -4 83.25 32.75"
	 xml:space="preserve">
<g>
	<path fill="#FFFFFF" d="M16.167,27.972c-0.186-0.186-0.186-0.413-0.186-0.605v-6.914c0-0.317,0.006-0.42,0.096-0.588
		c0.096-0.174,0.293-0.294,0.551-0.294c0.258,0,0.456,0.12,0.552,0.294c0.09,0.168,0.096,0.271,0.096,0.588v6.555h3.37
		c0.276,0,0.396,0.012,0.528,0.084c0.156,0.09,0.264,0.264,0.264,0.491c0,0.229-0.108,0.402-0.264,0.492
		c-0.132,0.071-0.252,0.084-0.528,0.084h-3.874C16.581,28.158,16.353,28.158,16.167,27.972z"/>
	<path fill="#FFFFFF" d="M24.177,21.825c-0.09,0.276-0.132,0.378-0.246,0.486c-0.102,0.096-0.24,0.144-0.384,0.144
		c-0.234,0-0.563-0.149-0.618-0.468c-0.03-0.156-0.006-0.275,0.084-0.546l0.426-1.265c0.09-0.276,0.132-0.378,0.246-0.486
		c0.102-0.096,0.24-0.144,0.384-0.144c0.234,0,0.563,0.149,0.618,0.468c0.03,0.155,0.006,0.275-0.084,0.546L24.177,21.825z"/>
	<path fill="#FFFFFF" d="M28.083,26.443l-0.426,1.145c-0.108,0.288-0.162,0.396-0.282,0.492c-0.096,0.078-0.216,0.126-0.354,0.126
		c-0.18,0-0.359-0.072-0.474-0.192c-0.246-0.252-0.168-0.521-0.042-0.857l2.615-6.962c0.09-0.246,0.156-0.348,0.258-0.443
		c0.126-0.12,0.27-0.181,0.474-0.181c0.204,0,0.348,0.061,0.474,0.181c0.102,0.096,0.168,0.197,0.258,0.443l2.614,6.962
		c0.126,0.336,0.204,0.605-0.042,0.857c-0.114,0.12-0.294,0.192-0.474,0.192c-0.138,0-0.258-0.048-0.354-0.126
		c-0.12-0.096-0.174-0.204-0.282-0.492l-0.426-1.145H28.083z M29.852,21.604l-1.367,3.736h2.734L29.852,21.604z"/>
	<path fill="#FFFFFF" d="M40.812,26.227c-0.144,0.307-0.324,0.48-0.66,0.48s-0.516-0.174-0.666-0.48l-1.811-3.777v4.875
		c0,0.318-0.006,0.42-0.096,0.588c-0.096,0.174-0.294,0.294-0.552,0.294s-0.456-0.12-0.551-0.294
		c-0.09-0.168-0.096-0.27-0.096-0.588v-6.956c0-0.21,0.03-0.438,0.192-0.605c0.138-0.138,0.312-0.192,0.474-0.192
		c0.15,0,0.282,0.036,0.366,0.084c0.102,0.061,0.234,0.223,0.318,0.39l2.423,4.941l2.411-4.941c0.084-0.167,0.216-0.329,0.318-0.39
		c0.084-0.048,0.216-0.084,0.366-0.084c0.162,0,0.336,0.055,0.474,0.192c0.162,0.168,0.192,0.396,0.192,0.605v6.956
		c0,0.318-0.006,0.42-0.096,0.588c-0.096,0.174-0.294,0.294-0.552,0.294s-0.456-0.12-0.552-0.294
		c-0.09-0.168-0.096-0.27-0.096-0.588v-4.875L40.812,26.227z"/>
	<path fill="#FFFFFF" d="M48.608,28.158c-0.192,0-0.42,0-0.605-0.187c-0.186-0.186-0.186-0.413-0.186-0.605V20.41
		c0-0.191,0-0.42,0.186-0.605c0.186-0.186,0.414-0.186,0.605-0.186h2.531c1.583,0,2.579,0.899,2.579,2.338
		c0,0.924-0.576,1.583-1.151,1.812c0.66,0.264,1.283,0.899,1.283,1.979c0,1.571-1.067,2.411-2.579,2.411H48.608z M51.031,23.234
		c0.828,0,1.391-0.438,1.391-1.229c0-0.797-0.563-1.234-1.391-1.234h-1.919v2.464H51.031z M49.112,24.386v2.621h2.039
		c0.9,0,1.403-0.558,1.403-1.319c0-0.756-0.503-1.302-1.403-1.302H49.112z"/>
	<path fill="#FFFFFF" d="M58.652,27.912c-0.096,0.174-0.294,0.294-0.553,0.294c-0.258,0-0.455-0.12-0.551-0.294
		c-0.09-0.168-0.096-0.27-0.096-0.588v-6.872c0-0.317,0.006-0.42,0.096-0.588c0.096-0.174,0.293-0.294,0.551-0.294
		c0.259,0,0.457,0.12,0.553,0.294c0.09,0.168,0.096,0.271,0.096,0.588v6.872C58.748,27.643,58.742,27.744,58.652,27.912z"/>
	<path fill="#FFFFFF" d="M63.506,26.443l-0.426,1.145c-0.107,0.288-0.161,0.396-0.281,0.492c-0.096,0.078-0.216,0.126-0.354,0.126
		c-0.18,0-0.359-0.072-0.475-0.192c-0.245-0.252-0.168-0.521-0.041-0.857l2.614-6.962c0.09-0.246,0.155-0.348,0.258-0.443
		c0.126-0.12,0.271-0.181,0.474-0.181c0.204,0,0.348,0.061,0.474,0.181c0.103,0.096,0.168,0.197,0.259,0.443l2.613,6.962
		c0.127,0.336,0.205,0.605-0.041,0.857c-0.114,0.12-0.295,0.192-0.475,0.192c-0.138,0-0.258-0.048-0.354-0.126
		c-0.119-0.096-0.174-0.204-0.281-0.492l-0.426-1.145H63.506z M65.275,21.604l-1.367,3.736h2.734L65.275,21.604z"/>
	<path fill="#FFFFFF" d="M73.1,27.324c0,0.318-0.006,0.42-0.096,0.588c-0.096,0.174-0.294,0.294-0.552,0.294
		s-0.456-0.12-0.552-0.294c-0.09-0.168-0.096-0.27-0.096-0.588v-6.926c0-0.282,0.042-0.479,0.186-0.624
		c0.133-0.132,0.295-0.204,0.492-0.204c0.306,0,0.498,0.187,0.756,0.57l3.705,5.475v-5.163c0-0.317,0.006-0.42,0.097-0.588
		c0.096-0.174,0.294-0.294,0.552-0.294s0.455,0.12,0.551,0.294c0.091,0.168,0.097,0.271,0.097,0.588v6.933
		c0,0.281-0.042,0.474-0.187,0.617c-0.131,0.132-0.293,0.204-0.491,0.204c-0.306,0-0.497-0.186-0.755-0.569L73.1,22.161V27.324z"/>
	<path fill="#FFFFFF" d="M82.7,20.416c0.552-0.552,1.271-0.869,2.2-0.869c1.074,0,1.716,0.323,2.237,0.881
		c0.479,0.517,0.653,1.068,0.653,1.374c0,0.222-0.054,0.365-0.174,0.485c-0.125,0.12-0.27,0.18-0.449,0.18
		c-0.162,0-0.294-0.054-0.384-0.126c-0.138-0.107-0.222-0.264-0.317-0.485c-0.312-0.731-0.786-1.157-1.59-1.157
		c-0.504,0-0.918,0.197-1.229,0.533c-0.45,0.486-0.51,1.032-0.51,2.657s0.06,2.171,0.51,2.656c0.311,0.336,0.725,0.533,1.229,0.533
		c0.804,0,1.277-0.426,1.59-1.157c0.096-0.222,0.18-0.378,0.317-0.485c0.09-0.072,0.222-0.126,0.384-0.126
		c0.18,0,0.324,0.06,0.449,0.18c0.12,0.12,0.174,0.264,0.174,0.486c0,0.306-0.174,0.857-0.653,1.373
		c-0.521,0.558-1.163,0.881-2.237,0.881c-0.929,0-1.648-0.317-2.2-0.869c-0.827-0.827-0.857-1.679-0.857-3.472
		S81.873,21.244,82.7,20.416z"/>
	<path fill="#FFFFFF" d="M92.636,23.276h2.818c0.276,0,0.396,0.013,0.528,0.084c0.155,0.09,0.264,0.264,0.264,0.492
		c0,0.228-0.108,0.401-0.264,0.491c-0.133,0.072-0.252,0.084-0.528,0.084h-2.818v2.579h3.431c0.275,0,0.395,0.012,0.527,0.084
		c0.156,0.09,0.264,0.264,0.264,0.491c0,0.229-0.107,0.402-0.264,0.492c-0.133,0.071-0.252,0.084-0.527,0.084h-3.935
		c-0.192,0-0.42,0-0.605-0.187c-0.187-0.186-0.187-0.413-0.187-0.605V20.41c0-0.191,0-0.42,0.187-0.605
		c0.186-0.186,0.413-0.186,0.605-0.186h3.935c0.275,0,0.395,0.012,0.527,0.083c0.156,0.091,0.264,0.265,0.264,0.492
		s-0.107,0.401-0.264,0.492c-0.133,0.071-0.252,0.084-0.527,0.084h-3.431V23.276z"/>
</g>
<g>
	<path fill-rule="evenodd" clip-rule="evenodd" fill="#17C1E4" d="M54.815,1.772c0.713-0.121,1.295-0.198,1.865-0.325
		c0.302-0.067,0.62-0.326,0.849,0.048c0.221,0.363-0.155,0.573-0.329,0.812c-0.329,0.452-0.711,0.866-1.027,1.325
		c-1.367,1.987-0.999,3.574,1.106,4.755c0.883,0.496,1.753,0.994,2.052,2.056c0.079,0.28,0.291,0.661-0.146,0.811
		c-0.454,0.155-0.503-0.265-0.591-0.558c-0.214-0.71-0.755-1.092-1.355-1.441c-3.017-1.758-3.393-3.365-1.509-6.358
		c0.061-0.097,0.093-0.211,0.172-0.395c-0.533-0.074-0.981,0.031-1.359,0.316c-0.407,0.307-0.656,0.063-0.931-0.175
		c-0.305-0.265-0.104-0.502,0.051-0.731c0.873-1.29,1.785-2.558,2.185-4.101c0.073-0.285,0.331-0.32,0.553-0.392
		c1.686-0.553,3.635,0.41,4.153,2.109c0.454,1.491,0.187,2.925-0.557,4.275c-0.124,0.226-0.229,0.575-0.611,0.366
		c-0.348-0.19-0.215-0.455-0.069-0.713c0.546-0.971,0.766-2.012,0.62-3.117c-0.144-1.084-0.686-1.857-1.79-2.15
		c-0.899-0.238-1.59-0.212-1.95,0.909C55.91-0.014,55.341,0.781,54.815,1.772z"/>
	<path fill-rule="evenodd" clip-rule="evenodd" fill="#17BFE3" d="M59.607,7.245c0.754,1.257,1.317,2.224,1.406,3.375
		c0.119,1.545-0.84,2.883-2.299,3.214c-1.337,0.305-2.644-0.34-3.155-1.568c-0.129-0.309-0.418-0.704,0.058-0.91
		c0.423-0.183,0.496,0.279,0.627,0.546c0.487,0.999,1.267,1.415,2.351,1.143c1.085-0.271,1.66-1.146,1.621-2.346
		c-0.027-0.876-0.443-1.603-0.851-2.338c-0.212-0.383-0.441-0.763-0.6-1.169c-0.146-0.372-0.268-0.865,0.056-1.131
		c0.316-0.262,0.63,0.191,0.956,0.293c0.377,0.117,0.886,0.746,1.063,0.329c0.23-0.539,1.171-1.052,0.41-1.856
		c-0.153-0.162-0.229-0.425-0.274-0.654c-0.076-0.393-0.088-0.913,0.36-0.98c0.475-0.072,0.291,0.551,0.452,0.754
		c0.752,0.946,1.239,1.804,0.008,2.734c-0.064,0.049-0.008,0.313,0.048,0.455c0.14,0.353,0.043,0.625-0.23,0.852
		c-0.347,0.287-0.587-0.051-0.858-0.167C60.473,7.697,60.201,7.545,59.607,7.245z"/>
</g>
</svg>
